<svg id="visual" viewBox="0 0 675 900" width="675" height="900" xmlns="http://www.w3.org/2000/svg" xmlns:xlink="http://www.w3.org/1999/xlink" version="1.1"><rect x="0" y="0" width="675" height="900" fill="#040a15"></rect><defs><linearGradient id="grad1_0" x1="0%" y1="0%" x2="100%" y2="100%"><stop offset="30%" stop-color="#4276cf" stop-opacity="1"></stop><stop offset="70%" stop-color="#4276cf" stop-opacity="1"></stop></linearGradient></defs><defs><linearGradient id="grad1_1" x1="0%" y1="0%" x2="100%" y2="100%"><stop offset="30%" stop-color="#4276cf" stop-opacity="1"></stop><stop offset="70%" stop-color="#203f6b" stop-opacity="1"></stop></linearGradient></defs><defs><linearGradient id="grad1_2" x1="0%" y1="0%" x2="100%" y2="100%"><stop offset="30%" stop-color="#040a15" stop-opacity="1"></stop><stop offset="70%" stop-color="#203f6b" stop-opacity="1"></stop></linearGradient></defs><defs><linearGradient id="grad2_0" x1="0%" y1="0%" x2="100%" y2="100%"><stop offset="30%" stop-color="#4276cf" stop-opacity="1"></stop><stop offset="70%" stop-color="#4276cf" stop-opacity="1"></stop></linearGradient></defs><defs><linearGradient id="grad2_1" x1="0%" y1="0%" x2="100%" y2="100%"><stop offset="30%" stop-color="#203f6b" stop-opacity="1"></stop><stop offset="70%" stop-color="#4276cf" stop-opacity="1"></stop></linearGradient></defs><defs><linearGradient id="grad2_2" x1="0%" y1="0%" x2="100%" y2="100%"><stop offset="30%" stop-color="#203f6b" stop-opacity="1"></stop><stop offset="70%" stop-color="#040a15" stop-opacity="1"></stop></linearGradient></defs><g transform="translate(675, 0)"><path d="M0 441C-65.4 461.4 -130.8 481.8 -193.7 467.7C-256.7 453.6 -317.1 405.1 -347.2 347.2C-377.3 289.3 -377.1 222.1 -392.6 162.6C-408.2 103.2 -439.6 51.6 -471 0L0 0Z" fill="#15253d"></path><path d="M0 294C-43.6 307.6 -87.2 321.2 -129.2 311.8C-171.1 302.4 -211.4 270.1 -231.5 231.5C-251.5 192.9 -251.4 148 -261.8 108.4C-272.2 68.8 -293.1 34.4 -314 0L0 0Z" fill="#2f5a9c"></path><path d="M0 147C-21.8 153.8 -43.6 160.6 -64.6 155.9C-85.6 151.2 -105.7 135 -115.7 115.7C-125.8 96.4 -125.7 74 -130.9 54.2C-136.1 34.4 -146.5 17.2 -157 0L0 0Z" fill="#4276cf"></path></g><g transform="translate(0, 900)"><path d="M0 -501C45.9 -447.6 91.8 -394.2 156.9 -378.8C222 -363.4 306.2 -386.1 358 -358C409.7 -329.9 429 -251 441.6 -182.9C454.2 -114.8 460.1 -57.4 466 0L0 0Z" fill="#15253d"></path><path d="M0 -334C30.6 -298.4 61.2 -262.8 104.6 -252.5C148 -242.3 204.1 -257.4 238.6 -238.6C273.2 -219.9 286 -167.4 294.4 -121.9C302.8 -76.5 306.7 -38.3 310.7 0L0 0Z" fill="#2f5a9c"></path><path d="M0 -167C15.3 -149.2 30.6 -131.4 52.3 -126.3C74 -121.1 102.1 -128.7 119.3 -119.3C136.6 -110 143 -83.7 147.2 -61C151.4 -38.3 153.4 -19.1 155.3 0L0 0Z" fill="#4276cf"></path></g></svg>